HIERARCHY
ROOT Hips
{
	OFFSET -3.958830 18.904000 13.208200
	CHANNELS 6 Xposition Yposition Zposition Zrotation Yrotation Xrotation 
	JOINT LHipJoint
	{
		OFFSET 0.000000 0.000000 0.000000
		CHANNELS 3 Zrotation Yrotation Xrotation
		JOINT LeftUpLeg
		{
			OFFSET 1.800000 -1.400000 0.085000
			CHANNELS 3 Zrotation Yrotation Xrotation
			JOINT LeftLeg
			{
				OFFSET 2.215000 -6.000000 0.000000
				CHANNELS 3 Zrotation Yrotation Xrotation
				JOINT LeftFoot
				{
					OFFSET 2.500000 -6.900000 0.000000
					CHANNELS 3 Zrotation Yrotation Xrotation
					JOINT LeftToeBase
					{
						OFFSET 0.200000 -0.500000 1.950000
						CHANNELS 3 Zrotation Yrotation Xrotation
						End Site
						{
							OFFSET 0.000000 0.000000 0.000000
						}
					}
				}
			}
		}
	}
	JOINT RHipJoint
	{
		OFFSET 0.000000 0.000000 0.000000
		CHANNELS 3 Zrotation Yrotation Xrotation
		JOINT RightUpLeg
		{
			OFFSET -1.800000 -1.400000 0.085000
			CHANNELS 3 Zrotation Yrotation Xrotation
			JOINT RightLeg
			{
				OFFSET -2.215000 -6.000000 0.000000
				CHANNELS 3 Zrotation Yrotation Xrotation
				JOINT RightFoot
				{
					OFFSET -2.500000 -6.900000 0.000000
					CHANNELS 3 Zrotation Yrotation Xrotation
					JOINT RightToeBase
					{
						OFFSET -0.200000 -0.500000 1.950000
						CHANNELS 3 Zrotation Yrotation Xrotation
						End Site
						{
							OFFSET 0.000000 0.000000 0.000000
						}
					}
				}
			}
		}
	}
	JOINT LowerBack
	{
		OFFSET 0.000000 0.000000 0.000000
		CHANNELS 3 Zrotation Yrotation Xrotation
		JOINT Spine
		{
			OFFSET -0.087000 1.940000 -0.288900
			CHANNELS 3 Zrotation Yrotation Xrotation
			JOINT Spine1
			{
				OFFSET 0.000000 1.950000 0.060000
				CHANNELS 3 Zrotation Yrotation Xrotation
				JOINT Neck
				{
					OFFSET 0.000000 0.000000 0.000000
					CHANNELS 3 Zrotation Yrotation Xrotation
					JOINT Neck1
					{
						OFFSET 0.000000 1.600000 0.340000
						CHANNELS 3 Zrotation Yrotation Xrotation
						JOINT Head
						{
							OFFSET 0.000000 1.667000 -0.240000
							CHANNELS 3 Zrotation Yrotation Xrotation
							End Site
							{
								OFFSET 0.000000 0.000000 0.000000
							}
						}
					}
				}
				JOINT LeftShoulder
				{
					OFFSET 0.000000 0.000000 0.000000
					CHANNELS 3 Zrotation Yrotation Xrotation
					JOINT LeftArm
					{
						OFFSET 2.700000 1.550000 -0.730000
						CHANNELS 3 Zrotation Yrotation Xrotation
						JOINT LeftForeArm
						{
							OFFSET 5.450000 0.000000 0.000000
							CHANNELS 3 Zrotation Yrotation Xrotation
							JOINT LeftHand
							{
								OFFSET 3.450000 0.000000 0.000000
								CHANNELS 3 Zrotation Yrotation Xrotation
								JOINT LeftHandIndex1
								{
									OFFSET 0.750000 0.000000 0.000000
									CHANNELS 3 Zrotation Yrotation Xrotation
									End Site
									{
										OFFSET 0.000000 0.000000 0.000000
									}
								}
							}
						}
					}
				}
				JOINT RightShoulder
				{
					OFFSET 0.000000 0.000000 0.000000
					CHANNELS 3 Zrotation Yrotation Xrotation
					JOINT RightArm
					{
						OFFSET -2.700000 1.550000 -0.730000
						CHANNELS 3 Zrotation Yrotation Xrotation
						JOINT RightForeArm
						{
							OFFSET -5.450000 0.000000 0.000000
							CHANNELS 3 Zrotation Yrotation Xrotation
							JOINT RightHand
							{
								OFFSET -3.450000 0.000000 0.000000
								CHANNELS 3 Zrotation Yrotation Xrotation
								JOINT RightHandIndex1
								{
									OFFSET -0.750000 0.000000 0.000000
									CHANNELS 3 Zrotation Yrotation Xrotation
									End Site
									{
										OFFSET 0.000000 0.000000 0.000000
									}
								}
							}
						}
					}
				}
			}
		}
	}
}
MOTION
Frames: 14
Frame Time: 0.016667
0.952840 16.918610 -3.748690 1.157075 23.178423 1.892134 -14.866460 12.203929 3.497984 -3.008436 -5.410400 -24.710055 -5.062719 6.345061 28.511308 -0.944228 5.072917 2.821723 0.716470 0.314780 0.444750 18.616380 -11.249021 3.083836 1.722539 4.961189 -24.521937 -2.036891 -8.124363 50.690867 -1.140628 -7.464899 1.775975 0.343340 0.374470 0.378210 -5.103839 0.308915 -8.107930 23.209361 -1.451975 16.312028 -6.002311 1.228536 18.139491 3.522389 0.112792 -15.349967 -2.368050 -8.576255 35.871354 1.398540 -10.291130 -21.292180 -12.559913 -33.657630 12.919054 -67.970212 -51.270503 19.053190 -1.704100 -62.623669 -6.124401 -3.506867 2.970400 0.851330 0.105610 0.072500 0.333230 5.294327 34.532121 8.604984 48.094827 35.651771 -3.196196 19.456414 53.400598 4.029738 1.541941 -1.602224 -0.331850 0.431420 -0.034240 -0.188060 
0.942150 16.877470 -3.764170 1.842741 23.685450 1.360021 -14.897462 12.247292 3.580729 -3.383442 -5.573269 -24.966239 -5.291153 6.803908 30.268402 -0.896486 5.365397 2.691212 0.775110 0.381030 0.478870 18.580699 -11.203169 3.021735 0.916871 5.104675 -22.976705 -1.033589 -8.327263 50.159786 -1.174315 -7.409695 1.779874 0.375130 0.324480 0.370620 -5.029479 0.109057 -8.159305 22.602441 -1.746259 17.534544 -6.398608 1.207161 18.853478 3.593121 -0.417355 -15.376230 -3.834517 -8.828851 37.155493 2.537320 -11.153350 -23.763630 -11.974442 -33.703280 12.844207 -69.518511 -54.379865 22.255810 -5.824681 -60.839904 -3.398918 -3.458804 3.041924 0.899820 0.044100 0.123990 0.344610 4.650759 34.967716 8.750766 46.753180 35.986937 -4.537998 17.828086 56.978097 3.633938 1.490353 -1.597424 -0.317320 0.446330 -0.061940 -0.186930 
0.913520 16.812570 -3.781060 2.191964 24.302150 0.503668 -14.892785 12.249999 3.609456 -3.152618 -5.635083 -25.133208 -5.725354 7.478874 32.334178 -0.854333 5.856488 2.536557 0.737770 0.344000 0.448750 18.588624 -11.168789 2.978965 0.424268 5.303410 -21.193158 0.372402 -8.878057 49.846335 -1.201122 -7.431490 1.797378 0.366840 0.391150 0.331360 -5.075734 0.025547 -8.189716 23.017404 -2.514082 18.988817 -8.628626 1.274257 19.215269 4.035780 -1.464295 -15.225087 -6.342483 -8.064369 38.797375 5.031140 -11.990810 -26.158830 -10.828787 -34.028932 12.755892 -68.832461 -56.557521 23.256004 -11.777785 -61.260095 0.231115 -3.470012 2.984382 0.956200 0.026010 0.126560 0.342890 2.668235 35.804781 8.419260 43.856796 36.411036 -5.144099 24.688951 60.183260 7.476012 1.470458 -1.521244 -0.374710 0.574210 -0.014390 -0.173770 
0.876330 16.726300 -3.814310 2.317421 24.165476 0.308852 -14.866232 12.054337 3.686087 -2.857923 -5.983734 -26.744713 -6.145785 8.271410 35.002987 -0.783603 6.388809 2.341312 0.780490 0.417320 0.457030 18.651123 -11.082716 2.996635 -0.047473 5.878583 -20.981584 1.954137 -9.572657 50.133221 -1.245384 -7.597920 1.756126 0.427140 0.415620 0.299090 -5.179369 0.180921 -8.281071 23.572174 -2.584791 19.935585 -10.118019 1.738411 19.147676 3.800973 -1.736069 -14.536942 -7.279825 -7.952345 39.785363 6.021000 -12.309620 -26.690670 -7.861022 -32.766746 12.561335 -68.538938 -63.119840 30.313898 -14.789131 -63.763712 3.699550 -3.515517 2.944249 0.943300 0.029130 0.122760 0.370670 0.057490 34.177451 6.891437 41.000572 37.271687 -3.708491 34.520647 64.413060 14.003645 1.485527 -1.576455 -0.388310 0.637840 -0.035040 -0.156940 
0.825660 16.637590 -3.850760 2.501209 23.383567 0.097911 -14.804918 11.820625 3.809363 -2.340938 -6.523195 -28.382954 -6.664684 9.126108 37.659824 -0.710225 7.007142 2.122986 0.754830 0.394010 0.425180 18.741284 -11.033556 3.030446 -0.670980 6.452996 -21.550765 2.377447 -10.155195 52.058151 -1.308828 -7.990864 1.640168 0.434940 0.473010 0.288420 -5.363886 0.417968 -8.480557 23.871981 -2.761065 21.686575 -11.701272 2.064135 18.873773 3.203015 -1.841645 -14.494618 -7.739238 -7.272247 40.859696 6.660960 -12.070390 -25.904120 -5.177004 -32.341587 12.341151 -61.908153 -68.888018 31.953909 -10.440699 -67.781479 3.416665 -3.500715 2.730349 0.932380 0.063840 0.087500 0.373390 -1.600723 33.067037 6.115686 38.485253 38.456895 -2.908891 39.740663 70.773457 19.451436 1.432975 -1.652807 -0.421970 0.679940 -0.003620 -0.152930 
0.766380 16.558100 -3.893130 2.503230 22.919799 0.031266 -14.708234 11.411430 4.060191 -0.927698 -8.167161 -29.886988 -8.528479 10.002899 39.807280 -0.662848 7.701139 1.857067 0.751560 0.389660 0.384210 18.891746 -11.047307 2.929115 -1.324613 5.547542 -23.575624 1.897048 -11.240578 54.430265 -1.362054 -8.530669 1.435640 0.485050 0.534840 0.312250 -5.700416 0.827813 -8.671617 24.334318 -2.929753 23.178143 -12.611306 1.676479 18.355194 2.014681 -1.284298 -13.911616 -6.523542 -7.710518 39.735364 6.560880 -12.247120 -23.818650 -1.677980 -31.645156 9.994967 -54.144086 -73.871683 33.430452 10.884760 -69.012767 -8.515535 -3.627237 2.144477 0.876140 0.136600 0.014130 0.371860 -3.039081 30.420008 6.105414 37.525031 38.752626 0.844566 57.675582 80.875452 35.496120 1.649015 -1.647400 -0.445140 0.670620 0.041170 -0.154320 
0.703830 16.507100 -3.934130 2.092027 20.895248 -0.483816 -14.763236 11.270409 4.151184 1.043563 -8.866469 -30.921125 -10.266352 11.072060 41.229706 -0.557671 8.307331 1.675490 0.721550 0.344420 0.369040 18.894965 -10.810071 2.872934 -1.958958 5.483239 -24.892730 2.524186 -12.511957 56.548068 -1.448741 -9.029877 1.285686 0.475000 0.576920 0.294690 -5.474446 0.561476 -8.502031 23.904505 -3.815143 23.952097 -13.531319 -0.026323 15.473262 0.227378 -1.297884 -10.009081 -7.902526 -6.983081 40.375166 6.192520 -12.026900 -21.899020 0.604241 -36.571974 -0.097975 -38.935167 -63.218869 25.950211 24.458473 -71.671287 -15.666848 -3.425166 1.574354 0.863810 0.166010 -0.025640 0.384220 -2.672943 33.399508 8.855827 34.034327 38.677263 4.779924 79.641344 87.760990 55.701881 2.830357 0.441338 -0.484410 0.684270 0.043070 -0.158480 
0.640630 16.479870 -3.978030 1.822431 18.944389 -1.269665 -14.833838 11.233043 4.178703 2.623530 -9.399906 -30.927021 -11.769031 11.682682 41.418915 -0.478888 8.548985 1.606670 0.683680 0.305130 0.367170 18.859406 -10.629242 2.806773 -3.120371 5.039316 -25.818374 3.550593 -14.137703 58.309233 -1.549551 -9.507085 1.165697 0.441500 0.561240 0.247330 -5.216165 0.269885 -8.312528 22.468861 -4.714053 25.568735 -13.260994 -1.297261 13.445365 -0.898180 -1.967334 -7.602865 -9.971255 -5.572099 41.004119 6.212050 -10.940220 -21.055120 4.162093 -38.829232 -4.033267 -22.768047 -56.524760 15.460306 40.580757 -75.149195 -28.363241 -3.611251 1.805697 0.875640 0.151340 -0.029900 0.375800 -4.130545 36.046941 7.744550 28.241820 38.206495 1.361663 95.730672 81.445856 65.851093 3.408545 1.876647 -0.509600 0.685950 0.028840 -0.173420 
0.567670 16.460970 -4.022300 1.710857 16.820383 -1.277520 -14.844509 11.062327 4.289754 4.313597 -9.885679 -31.721176 -13.509858 12.438283 41.424529 -0.380812 8.862093 1.531035 0.609130 0.245830 0.307470 18.872543 -10.492073 2.877417 -4.381899 4.925309 -27.979250 4.291170 -15.549239 60.166381 -1.622065 -9.990686 1.054027 0.399670 0.640760 0.241510 -5.146843 0.281290 -8.453758 21.037709 -4.528005 27.097211 -11.988593 -1.184107 12.739711 -1.209106 -2.800780 -6.954896 -10.808510 -5.001375 40.606496 6.128780 -10.771950 -20.198150 7.129270 -36.617161 -3.465951 -11.066809 -54.096396 6.331510 59.368218 -75.933427 -42.279067 -3.576358 1.359010 0.830200 0.202390 -0.063320 0.375730 -6.016987 35.387990 5.306349 24.748802 35.675862 -3.325878 116.827097 72.995894 83.978395 2.502019 1.047891 -0.520860 0.730620 0.063920 -0.141170 
0.505030 16.459600 -4.069390 0.906340 14.235153 -1.288607 -14.882870 11.012491 4.441861 6.898673 -10.326328 -32.634233 -15.083598 13.034163 41.228370 -0.253625 9.066080 1.470455 0.525820 0.152400 0.306120 18.836832 -10.306304 2.957244 -5.170202 4.553782 -30.014156 5.039394 -16.960759 61.409257 -1.702210 -10.329935 0.971998 0.295190 0.612890 0.237620 -4.972308 0.019953 -8.611269 19.292233 -5.185508 29.033602 -10.700162 -1.905873 11.616179 -0.992244 -3.439498 -7.785334 -11.484760 -2.827767 41.748806 4.917570 -8.610130 -19.572020 8.468163 -34.307319 -2.045781 1.760770 -47.026078 -2.443332 71.390773 -75.973871 -50.225191 -3.337973 0.784296 0.838870 0.189210 -0.038030 0.342740 -7.301029 34.327552 4.614075 20.993574 34.414289 -3.830253 133.749136 70.192327 104.459377 1.835393 -0.075202 -0.508630 0.690400 0.063850 -0.149160 
0.437670 16.461550 -4.102130 -0.297508 11.161558 -0.561994 -14.935499 10.939057 4.556260 9.534760 -10.174636 -34.129967 -16.326967 13.427579 40.313398 -0.113960 9.066077 1.461958 0.512200 0.187450 0.295320 18.810021 -10.006256 3.133631 -5.567639 4.875796 -32.636751 5.910024 -18.250111 62.850061 -1.818215 -10.734033 0.883840 0.242070 0.582760 0.277340 -4.792862 -0.292544 -8.745368 18.015994 -5.490494 29.484449 -9.456012 -2.408230 11.305038 -0.652584 -3.656853 -8.678127 -11.366074 -1.224134 42.187453 2.864560 -6.417400 -18.618960 10.514849 -30.818992 -0.343176 6.061131 -39.486467 -4.545657 82.343395 -72.480020 -57.191529 -3.212088 0.445543 0.767760 0.202760 0.009680 0.356510 -9.744132 31.586511 4.346320 20.179113 33.579701 -2.843902 139.888986 67.612162 108.840437 1.792108 -0.524110 -0.411210 0.620120 0.022340 -0.103090 
0.385560 16.494340 -4.117740 -1.151074 8.695259 0.206914 -14.977013 10.985421 4.568388 11.072568 -9.784872 -34.910601 -16.103475 13.193004 39.327387 -0.051832 8.846643 1.529429 0.468490 0.122620 0.290150 18.770742 -9.757651 3.328515 -7.168579 5.037623 -34.363730 8.354941 -20.048018 62.587284 -1.889605 -11.015990 0.819553 0.137170 0.530700 0.316140 -4.645679 -0.661849 -8.846481 17.339384 -5.988976 29.718216 -8.882156 -3.001930 10.694376 0.036407 -4.162241 -9.976370 -12.424551 0.080255 43.784231 0.776530 -5.203430 -17.097950 9.805435 -28.450774 1.058419 7.132908 -32.330910 -5.801253 81.785125 -73.039666 -57.007256 -3.104397 0.494272 0.754600 0.186910 0.042120 0.346420 -10.229232 30.065734 5.218368 18.745324 31.546327 -2.602359 147.804520 66.207007 118.673596 1.718536 -0.849358 -0.343860 0.520020 0.004570 -0.094750 
0.335860 16.504470 -4.089060 -2.138010 5.350151 2.921161 -15.060791 10.910490 4.741791 13.480378 -9.304800 -37.218677 -17.059539 13.575884 37.995471 0.043989 8.833118 1.542067 0.363730 -0.020840 0.250090 18.738990 -9.254086 3.596147 -8.629668 5.647996 -37.664651 10.733158 -21.429691 61.727155 -1.902721 -11.121345 0.810505 -0.008960 0.520730 0.325020 -4.450684 -1.272638 -9.044303 16.703386 -6.096344 27.619429 -7.815372 -3.551661 9.146032 0.579352 -5.044755 -11.719630 -14.720793 2.658956 45.960414 -0.142420 -3.504130 -14.966800 8.283270 -25.644652 2.810665 5.389148 -25.846367 -5.497376 80.345550 -73.021224 -55.417162 -3.040683 0.603078 0.769530 0.164760 0.054620 0.324210 -9.697151 28.384392 6.281786 19.222241 29.897270 -1.045682 152.285940 64.894609 124.937349 1.740473 -0.957244 -0.321910 0.462960 0.024720 -0.087430 
0.271120 16.553760 -4.052330 -2.570379 0.478009 3.811495 -15.160127 11.172480 4.669028 14.950448 -8.172589 -36.328642 -17.284798 13.716440 36.313883 0.027764 8.703976 1.565755 0.307490 -0.117420 0.280830 18.619422 -9.012790 3.766562 -10.157765 6.257032 -38.515321 12.247242 -21.364824 59.987295 -1.838162 -10.864514 0.883383 -0.097730 0.473670 0.333500 -4.122785 -1.888853 -9.117465 13.927272 -5.464371 27.449993 -5.792104 -3.548258 9.045028 1.260680 -5.318570 -12.689450 -15.319255 4.437567 47.492030 -3.198940 -0.923130 -15.328360 6.225779 -23.429721 4.006170 3.841265 -19.038462 -5.963695 76.858009 -72.604423 -51.886893 -3.036841 0.824941 0.821360 0.136290 0.086520 0.276990 -8.757012 27.104720 6.979996 19.647511 28.505433 -1.531655 158.011527 66.747277 136.097166 1.701676 -0.980703 -0.323060 0.433470 0.045840 -0.124170 
